<svg width="256" height="256" viewBox="0 0 256 256" fill="none" xmlns="http://www.w3.org/2000/svg">
<circle cx="128" cy="128" r="124" fill="#91A173" stroke="#E5E7EB" stroke-width="8"/>
<path fill-rule="evenodd" clip-rule="evenodd" d="M132.91 53.057C142.254 43.9622 154.804 38.9126 167.843 39.0011C180.882 39.0897 193.362 44.3093 202.581 53.5302C211.801 62.7511 217.018 75.2316 217.105 88.2707C217.191 101.31 212.14 113.859 203.044 123.201L202.926 123.308L178.766 147.468C173.738 152.498 167.687 156.387 161.024 158.873C154.36 161.359 147.24 162.383 140.146 161.875C133.052 161.367 126.15 159.339 119.909 155.93C113.667 152.52 108.232 147.808 103.972 142.113C103.206 141.134 102.644 140.013 102.318 138.814C101.992 137.615 101.909 136.363 102.073 135.131C102.237 133.9 102.645 132.713 103.274 131.642C103.903 130.57 104.739 129.635 105.734 128.89C106.729 128.146 107.862 127.608 109.068 127.308C110.273 127.007 111.527 126.951 112.754 127.141C113.982 127.331 115.16 127.765 116.218 128.416C117.276 129.068 118.193 129.924 118.916 130.934C121.573 134.488 124.963 137.428 128.856 139.555C132.75 141.682 137.055 142.947 141.481 143.264C145.906 143.581 150.348 142.942 154.505 141.39C158.662 139.839 162.436 137.412 165.572 134.273L189.668 110.166C195.289 104.329 198.395 96.5193 198.318 88.4159C198.241 80.3126 194.988 72.563 189.257 66.8336C183.526 61.1041 175.775 57.8523 167.672 57.7774C159.569 57.7025 151.76 60.8105 145.924 66.433L132.121 80.161C130.352 81.8307 128.001 82.7438 125.569 82.7057C123.136 82.6676 120.815 81.6814 119.099 79.9571C117.383 78.2329 116.408 75.9068 116.382 73.4744C116.356 71.0419 117.28 68.6953 118.958 66.9344L132.91 53.057ZM94.0837 98.0704C104.125 94.3239 115.11 93.9307 125.394 96.9496C135.677 99.9685 144.706 106.237 151.129 114.817C151.864 115.798 152.399 116.915 152.703 118.103C153.007 119.291 153.074 120.527 152.9 121.741C152.727 122.955 152.315 124.122 151.69 125.177C151.065 126.232 150.238 127.154 149.257 127.889C148.276 128.624 147.159 129.159 145.971 129.463C144.783 129.767 143.547 129.834 142.333 129.66C141.119 129.487 139.952 129.075 138.897 128.45C137.842 127.825 136.92 126.998 136.185 126.017C133.529 122.465 130.14 119.525 126.248 117.398C122.356 115.271 118.052 114.006 113.627 113.688C109.203 113.37 104.763 114.008 100.607 115.557C96.4505 117.106 92.6762 119.531 89.5397 122.668L65.433 146.774C59.8652 152.621 56.8036 160.412 56.902 168.485C57.0004 176.558 60.2511 184.272 65.9599 189.981C71.6686 195.69 79.3831 198.94 87.4559 199.039C95.5287 199.137 103.32 196.076 109.166 190.508L122.884 176.801C123.75 175.934 124.779 175.246 125.911 174.777C127.043 174.307 128.257 174.065 129.483 174.065C130.708 174.064 131.922 174.305 133.055 174.774C134.187 175.242 135.217 175.929 136.084 176.796C136.951 177.662 137.639 178.691 138.108 179.823C138.578 180.955 138.82 182.169 138.82 183.395C138.821 184.62 138.58 185.834 138.111 186.967C137.643 188.099 136.955 189.129 136.089 189.996L122.308 203.766L122.201 203.873C112.859 212.969 100.31 218.021 87.2707 217.934C74.2316 217.848 61.7511 212.63 52.5302 203.411C43.3093 194.191 38.0897 181.711 38.0011 168.672C37.9126 155.633 42.9622 143.084 52.057 133.74L52.1744 133.633L76.3344 109.473C81.3606 104.441 87.4102 100.548 94.073 98.0597" fill="#E5E7EB"/>
</svg>
