<svg width="256" height="256" viewBox="0 0 256 256" fill="none" xmlns="http://www.w3.org/2000/svg">
<rect width="256" height="256" rx="90" fill="#91A173"/>
<path d="M125.033 41.25C125.945 40.7584 126.964 40.501 128 40.501C129.036 40.501 130.055 40.7584 130.967 41.25L212.217 85C213.209 85.5355 214.038 86.3295 214.615 87.2977C215.193 88.266 215.498 89.3725 215.498 90.5C215.498 91.6275 215.193 92.734 214.615 93.7023C214.038 94.6705 213.209 95.4645 212.217 96L130.967 139.75C130.055 140.242 129.036 140.499 128 140.499C126.964 140.499 125.945 140.242 125.033 139.75L43.7833 96C42.7911 95.4645 41.9623 94.6705 41.3846 93.7023C40.8069 92.734 40.5019 91.6275 40.5019 90.5C40.5019 89.3725 40.8069 88.266 41.3846 87.2977C41.9623 86.3295 42.7911 85.5355 43.7833 85L125.033 41.25Z" fill="#515C3D"/>
<path d="M55.2083 116.35L119.108 150.758C121.841 152.23 124.896 153.001 128 153.001C131.104 153.001 134.159 152.23 136.892 150.758L200.792 116.342L212.208 122.5C213.201 123.036 214.029 123.829 214.607 124.798C215.185 125.766 215.49 126.873 215.49 128C215.49 129.128 215.185 130.234 214.607 131.202C214.029 132.171 213.201 132.964 212.208 133.5L130.958 177.25C130.049 177.739 129.032 177.994 128 177.994C126.968 177.994 125.951 177.739 125.042 177.25L43.7917 133.5C42.7995 132.964 41.9706 132.171 41.3929 131.202C40.8153 130.234 40.5103 129.128 40.5103 128C40.5103 126.873 40.8153 125.766 41.3929 124.798C41.9706 123.829 42.7995 123.036 43.7917 122.5L55.2083 116.35Z" fill="#5F6B48"/>
<path d="M119.108 188.258L55.2083 153.842L43.7917 160C42.7995 160.536 41.9706 161.33 41.3929 162.298C40.8153 163.266 40.5103 164.373 40.5103 165.5C40.5103 166.628 40.8153 167.734 41.3929 168.702C41.9706 169.671 42.7995 170.464 43.7917 171L125.042 214.75C126.883 215.75 129.117 215.75 130.958 214.75L212.208 171C213.201 170.464 214.029 169.671 214.607 168.702C215.185 167.734 215.49 166.628 215.49 165.5C215.49 164.373 215.185 163.266 214.607 162.298C214.029 161.33 213.201 160.536 212.208 160L200.792 153.85L136.892 188.267C134.158 189.737 131.103 190.506 127.999 190.505C124.895 190.503 121.84 189.732 119.108 188.258Z" fill="#6C7A52"/>
</svg>
