<?xml version="1.0" encoding="UTF-8" standalone="no"?>
<!-- Created with Inkscape (http://www.inkscape.org/) -->

<svg
   width="67.73333mm"
   height="67.73333mm"
   viewBox="0 0 67.73333 67.73333"
   version="1.1"
   id="svg1"
   xmlns="http://www.w3.org/2000/svg"
   xmlns:svg="http://www.w3.org/2000/svg">
  <defs
     id="defs1" />
  <g
     id="layer1">
    <circle
       style="fill:#4e5e51;fill-opacity:1;fill-rule:evenodd;stroke-width:1.39991;stroke-linecap:square;paint-order:markers stroke fill"
       id="path1"
       cx="33.866665"
       cy="33.866665"
       r="33.866669" />
    <path
       fill="#888888"
       d="m 57.047456,34.910604 c 5.041233,-5.041242 5.041233,-13.205372 0,-18.246614 -4.461279,-4.461277 -11.492252,-5.041241 -16.622719,-1.374079 l -0.142743,0.09815 c -1.284854,0.919022 -1.579295,2.703539 -0.660247,3.979458 0.919022,1.275924 2.703531,1.579293 3.979457,0.660247 l 0.142744,-0.09815 c 2.864146,-2.043259 6.781141,-1.722046 9.261612,0.767367 2.810603,2.810603 2.810603,7.361106 0,10.171709 L 42.994459,40.897639 c -2.810603,2.810603 -7.361106,2.810603 -10.171709,0 -2.48939,-2.489381 -2.810603,-6.406377 -0.767368,-9.261597 l 0.09815,-0.142743 c 0.919013,-1.284852 0.615654,-3.069362 -0.660247,-3.979465 -1.275918,-0.910097 -3.069355,-0.615655 -3.979458,0.660247 l -0.09815,0.142743 c -3.67609,5.121549 -3.096125,12.152514 1.365152,16.613791 5.041241,5.041243 13.20538,5.041243 18.246621,0 z M 10.68588,32.822727 c -5.041241,5.04124 -5.041241,13.205371 0,18.246612 4.461278,4.461277 11.492243,5.041242 16.62271,1.374078 l 0.142744,-0.09815 c 1.284852,-0.919023 1.5793,-2.703531 0.660247,-3.979458 -0.919023,-1.275926 -2.703533,-1.579286 -3.979458,-0.660247 l -0.142743,0.09815 c -2.864139,2.043261 -6.781143,1.722047 -9.261614,-0.767367 -2.810603,-2.819529 -2.810603,-7.370032 0,-10.180635 L 24.738869,26.83569 c 2.810611,-2.810603 7.361104,-2.810603 10.171707,0 2.489398,2.48939 2.810603,6.406384 0.767368,9.270523 l -0.09815,0.142743 c -0.919022,1.284852 -0.615656,3.069363 0.660247,3.979466 1.275925,0.910096 3.069361,0.615654 3.979458,-0.660247 l 0.09815,-0.142744 c 3.676098,-5.130467 3.096134,-12.16144 -1.365143,-16.622709 -5.041242,-5.041242 -13.205381,-5.041242 -18.246622,0 z"
       id="path1-1"
       style="fill:#eeeded;fill-opacity:1;stroke-width:0.0892259" />
  </g>
</svg>
