<?xml version="1.0" encoding="UTF-8" standalone="no"?>
<!-- Created with Inkscape (http://www.inkscape.org/) -->

<svg
   width="8.4666662mm"
   height="8.4666662mm"
   viewBox="0 0 8.4666662 8.4666662"
   version="1.1"
   id="svg1"
   inkscape:version="1.4.2 (f4327f4, 2025-05-13)"
   sodipodi:docname="linknest.svg"
   inkscape:export-batch-path="C:\Users\mathe\Downloads"
   inkscape:export-batch-name="batch"
   xml:space="preserve"
   xmlns:inkscape="http://www.inkscape.org/namespaces/inkscape"
   xmlns:sodipodi="http://sodipodi.sourceforge.net/DTD/sodipodi-0.dtd"
   xmlns="http://www.w3.org/2000/svg"
   xmlns:svg="http://www.w3.org/2000/svg"><sodipodi:namedview
     id="namedview1"
     pagecolor="#505050"
     bordercolor="#eeeeee"
     borderopacity="1"
     inkscape:showpageshadow="0"
     inkscape:pageopacity="0"
     inkscape:pagecheckerboard="true"
     inkscape:deskcolor="#505050"
     inkscape:document-units="px"
     showgrid="false"
     inkscape:zoom="0.6225"
     inkscape:cx="1207.2289"
     inkscape:cy="314.85944"
     inkscape:current-layer="layer1"><inkscape:page
       x="0"
       y="0"
       width="8.4666662"
       height="8.4666662"
       id="page18"
       margin="0"
       bleed="0"
       inkscape:export-filename="Page 1.png"
       inkscape:export-xdpi="96"
       inkscape:export-ydpi="96"
       inkscape:label="favicon" /></sodipodi:namedview><defs
     id="defs1" /><inkscape:templateinfo><inkscape:name>Web Branding</inkscape:name><inkscape:author>Matheus Mortari</inkscape:author><inkscape:shortdesc>A complete sheet with favicon, logo and Open Graph image for web branding.</inkscape:shortdesc><inkscape:date>2025-08-29</inkscape:date></inkscape:templateinfo><g
     inkscape:label="Favicon"
     inkscape:groupmode="layer"
     id="layer1"><circle
       style="fill:#4e5e51;fill-opacity:1;stroke-width:0.264583"
       id="path2"
       cx="4.2333331"
       cy="4.2333331"
       r="4.2333336"
       inkscape:label="circ" /><path
       fill="#888888"
       d="m 7.0768326,4.361389 c 0.6183896,-0.6183898 0.6183896,-1.6198533 0,-2.2382432 C 6.5295848,1.5758981 5.6671223,1.5047558 5.0377874,1.9545935 l -0.017511,0.012039 c -0.157608,0.112733 -0.1937264,0.3316321 -0.080993,0.488145 0.112733,0.1565128 0.331632,0.1937256 0.488145,0.080993 l 0.017511,-0.01204 C 5.7962728,2.273091 6.2767563,2.3124928 6.581026,2.6178565 c 0.3447661,0.344766 0.3447661,0.9029587 0,1.2477248 l -1.228024,1.230213 c -0.3447661,0.344766 -0.9029587,0.344766 -1.2477249,0 -0.305364,-0.305363 -0.3447659,-0.7858465 -0.094126,-1.136085 l 0.01204,-0.017511 C 4.1359232,3.78459 4.0987104,3.5656909 3.9421974,3.4540523 3.7856846,3.3424137 3.565691,3.3785322 3.4540525,3.535045 l -0.012039,0.017511 c -0.4509322,0.6282406 -0.37979,1.490703 0.1674578,2.0379508 0.61839,0.6183899 1.6198533,0.6183899 2.2382433,0 z M 1.3898339,4.1052772 c -0.61838994,0.6183899 -0.61838994,1.6198533 0,2.2382432 0.5472477,0.5472478 1.4097102,0.61839 2.0390452,0.1685524 l 0.017511,-0.01204 C 3.6039984,6.3873003 3.6401167,6.1684011 3.5273837,6.0118883 3.4146507,5.8553755 3.1957515,5.8181626 3.0392387,5.9308957 l -0.017512,0.01204 c -0.3513331,0.2506389 -0.8318166,0.211237 -1.1360863,-0.094127 -0.3447661,-0.3458606 -0.3447661,-0.9040533 0,-1.2488193 l 1.228024,-1.2291188 c 0.3447661,-0.344766 0.9029588,-0.344766 1.2477249,0 0.3053642,0.3053643 0.3447661,0.7858478 0.094126,1.1371809 l -0.01204,0.017511 c -0.1127332,0.1576076 -0.075521,0.3765067 0.080993,0.4881452 0.1565128,0.1116386 0.3765064,0.07552 0.4881449,-0.080993 l 0.01204,-0.017511 C 5.4755857,4.2858689 5.4044435,3.4234064 4.8571957,2.8761587 c -0.6183899,-0.61839 -1.6198534,-0.61839 -2.2382433,0 z"
       id="path1"
       style="fill:#eeeded;fill-opacity:1;stroke-width:0.010945" /></g></svg>
