<?xml version="1.0" encoding="UTF-8" standalone="no"?>
<!-- Created with Inkscape (http://www.inkscape.org/) -->

<svg
   width="255.99998"
   height="255.99998"
   viewBox="0 0 67.733321 67.733321"
   version="1.1"
   id="svg1"
   inkscape:version="1.4.2 (f4327f4, 2025-05-13)"
   sodipodi:docname="linknest.svg"
   xml:space="preserve"
   xmlns:inkscape="http://www.inkscape.org/namespaces/inkscape"
   xmlns:sodipodi="http://sodipodi.sourceforge.net/DTD/sodipodi-0.dtd"
   xmlns="http://www.w3.org/2000/svg"
   xmlns:svg="http://www.w3.org/2000/svg"><sodipodi:namedview
     id="namedview1"
     pagecolor="#505050"
     bordercolor="#eeeeee"
     borderopacity="1"
     inkscape:showpageshadow="false"
     inkscape:pageopacity="0"
     inkscape:pagecheckerboard="true"
     inkscape:deskcolor="#505050"
     inkscape:document-units="px"
     showguides="true"
     borderlayer="true"
     labelstyle="default"
     showborder="true"
     inkscape:zoom="0.32"
     inkscape:cx="750"
     inkscape:cy="417.1875"
     inkscape:window-width="1366"
     inkscape:window-height="697"
     inkscape:window-x="-8"
     inkscape:window-y="-8"
     inkscape:window-maximized="1"
     inkscape:current-layer="layer1"
     showgrid="false"><inkscape:page
       x="0"
       y="0"
       width="67.733322"
       height="67.733322"
       id="page2"
       margin="0"
       bleed="0"
       inkscape:label="logo" /></sodipodi:namedview><defs
     id="defs1" /><g
     inkscape:groupmode="layer"
     id="layer2"
     inkscape:label="logo"><circle
       style="fill:#748d6e;fill-opacity:1;stroke:none;stroke-width:1.5875;stroke-dasharray:none;stroke-opacity:1"
       id="path1"
       cx="-23.947344"
       cy="-41.47802"
       r="33.337498"
       transform="rotate(165)"
       inkscape:label="bg" /><path
       fill="currentColor"
       d="m 25.484009,52.347536 c 1.570539,-0.420824 2.979704,-1.254701 4.105835,-2.387983 1.900468,1.113231 3.981013,1.914556 6.15766,2.355508 -2.059607,2.985554 -5.12151,5.144522 -8.641035,6.087576 C 18.932077,60.592959 10.52528,55.747292 8.3324229,47.563439 7.2803587,43.637082 7.8324766,39.453275 9.8617953,35.938392 l 4.9243887,-8.529291 c 2.029318,-3.514883 5.376547,-6.084929 9.302902,-7.136993 8.17439,-2.190321 16.581186,2.655341 18.774042,10.839192 0.03803,0.141943 0.07605,0.283838 0.104897,0.428185 0.401227,1.687338 -0.637,3.375043 -2.324289,3.77645 -1.687336,0.401227 -3.375041,-0.636996 -3.776449,-2.324289 l -0.06591,-0.245962 c -1.295433,-4.834622 -6.261855,-7.701986 -11.096476,-6.406553 -2.317968,0.621098 -4.295423,2.134573 -5.500547,4.221907 l -4.924411,8.5293 c -1.198194,2.075342 -1.527105,4.556599 -0.906006,6.874572 1.295433,4.834622 6.26186,7.701985 11.096476,6.406553 z M 37.176741,41.375963 c 0.200045,0.02752 0.407698,0.08343 0.598939,0.153849 1.356878,0.295551 2.813075,0.280558 4.241703,-0.102242 2.317969,-0.621098 4.295425,-2.134568 5.500547,-4.221909 l 4.924389,-8.529291 c 1.198201,-2.075339 1.527105,-4.5566 0.906007,-6.874567 -1.295433,-4.834622 -6.261855,-7.701987 -11.096476,-6.406554 -1.561084,0.418291 -2.972778,1.242726 -4.098914,2.375985 -1.900467,-1.113228 -3.981014,-1.91456 -6.167119,-2.352973 2.062143,-2.976097 5.112047,-5.141987 8.641038,-6.0875773 8.174389,-2.1903211 16.581181,2.6553483 18.774037,10.8391953 1.052063,3.926355 0.499953,8.110163 -1.529369,11.625053 l -4.92439,8.529292 C 50.917814,43.839107 47.570587,46.409151 43.64423,47.461215 35.450921,49.656605 27.04784,44.7491 24.860054,36.584174 l -0.09886,-0.368971 c -0.410953,-1.684728 0.627532,-3.372505 2.312292,-3.783371 1.684733,-0.410944 3.372506,0.627534 3.78337,2.312289 l 0.0583,0.217583 c 0.854326,3.188391 3.307709,5.532559 6.256503,6.395312 z"
       id="path1-4"
       style="fill:#ebe8e8;fill-opacity:1;stroke-width:0.0979488"
       inkscape:label="fg" /></g></svg>
